<svg width="41" height="41" viewBox="0 0 41 41" fill="none" xmlns="http://www.w3.org/2000/svg">
<path d="M12.0098 0.143528C9.82857 0.24637 8.33907 0.594527 7.0368 1.106C5.68926 1.63131 4.54689 2.336 3.41033 3.47665C2.27394 4.6173 1.57386 5.76034 1.05248 7.11026C0.547834 8.41508 0.205824 9.90594 0.109473 12.0883C0.0131228 14.2707 -0.00823149 14.9723 0.00253106 20.5394C0.0131228 26.1062 0.0377229 26.804 0.143469 28.991C0.247678 31.1717 0.594471 32.6609 1.10612 33.9635C1.63229 35.3112 2.33613 36.453 3.4773 37.5899C4.6183 38.7268 5.7605 39.4252 7.1135 39.9474C8.41731 40.4514 9.90852 40.7949 12.0906 40.8904C14.2727 40.9861 14.9749 41.0083 20.5404 40.9975C26.1058 40.9869 26.8066 40.9622 28.9929 40.8585C31.1796 40.7548 32.6607 40.4054 33.9639 39.8962C35.3116 39.369 36.4543 38.6662 37.5903 37.5248C38.7264 36.3833 39.4259 35.2394 39.947 33.8888C40.4521 32.585 40.7953 31.094 40.89 28.9135C40.9856 26.7253 41.0082 26.0268 40.9976 20.4607C40.9868 14.8944 40.9617 14.1966 40.858 12.0104C40.7543 9.82428 40.407 8.33975 39.8957 7.03629C39.3689 5.68859 38.6657 4.5476 37.5252 3.40985C36.3846 2.27211 35.2396 1.57306 33.8897 1.05321C32.5849 0.548402 31.0947 0.204516 28.9126 0.110216C26.7306 0.0159161 26.0283 -0.00851296 20.4608 0.00242034C14.8933 0.013012 14.1963 0.0369286 12.0098 0.143528ZM12.2493 37.2025C10.2505 37.1155 9.16522 36.7834 8.44191 36.5055C7.48421 36.1365 6.8019 35.6904 6.08115 34.9765C5.36023 34.2628 4.9176 33.5781 4.54364 32.6224C4.26279 31.8991 3.92454 30.815 3.8311 28.8163C3.72945 26.6561 3.70809 26.0075 3.69614 20.5343C3.68418 15.0613 3.70519 14.4134 3.79983 12.2523C3.88525 10.2553 4.2194 9.1688 4.49684 8.44583C4.86584 7.48695 5.31035 6.80584 6.0258 6.08561C6.74126 5.3652 7.42391 4.92155 8.38041 4.5476C9.10304 4.26555 10.187 3.93021 12.1849 3.83505C14.3468 3.73256 14.9946 3.71206 20.4669 3.7001C25.9393 3.68814 26.5888 3.70864 28.7515 3.80396C30.7486 3.89075 31.8356 4.22165 32.5577 4.50096C33.5158 4.86996 34.1977 5.3131 34.918 6.02992C35.6384 6.74639 36.0824 7.42664 36.4563 8.38519C36.7387 9.10559 37.0742 10.1892 37.1685 12.1884C37.2714 14.3503 37.2948 14.9986 37.3045 20.4704C37.3144 25.9422 37.2951 26.592 37.2003 28.7524C37.1132 30.7511 36.7818 31.8368 36.5033 32.5609C36.1343 33.5183 35.6896 34.2009 34.9737 34.9208C34.2579 35.6409 33.5761 36.0844 32.619 36.4583C31.8974 36.74 30.8121 37.0762 28.8159 37.1714C26.6539 37.273 26.0061 37.2944 20.5317 37.3063C15.0573 37.3183 14.4112 37.2961 12.2493 37.2025ZM28.9615 9.54344C28.9623 10.03 29.1074 10.5054 29.3784 10.9095C29.6495 11.3137 30.0342 11.6283 30.4841 11.8137C30.934 11.9991 31.4288 12.047 31.9058 11.9512C32.3829 11.8554 32.8208 11.6203 33.1642 11.2755C33.5077 10.9308 33.7411 10.492 33.8352 10.0146C33.9292 9.53718 33.8795 9.04261 33.6924 8.59344C33.5053 8.14426 33.1892 7.76066 32.784 7.49115C32.3789 7.22164 31.903 7.07833 31.4164 7.07934C30.7641 7.0807 30.1391 7.34104 29.6787 7.80312C29.2184 8.26519 28.9604 8.89118 28.9615 9.54344ZM9.97412 20.5205C9.98557 26.3343 14.7073 31.0364 20.5197 31.0255C26.3325 31.0144 31.038 26.2933 31.027 20.4795C31.0159 14.6657 26.2932 9.96215 20.4797 9.97359C14.6663 9.98504 9.96319 14.7074 9.97412 20.5205ZM13.6667 20.5131C13.664 19.1616 14.0622 17.8397 14.8108 16.7145C15.5595 15.5893 16.6249 14.7113 17.8725 14.1917C19.1201 13.672 20.4938 13.534 21.8199 13.795C23.1459 14.056 24.3648 14.7044 25.3224 15.6582C26.2799 16.6119 26.9331 17.8282 27.1995 19.1532C27.4658 20.4782 27.3332 21.8524 26.8185 23.102C26.3038 24.3517 25.43 25.4206 24.3078 26.1737C23.1856 26.9268 21.8652 27.3302 20.5137 27.3329C19.6163 27.3348 18.7273 27.1599 17.8975 26.8182C17.0677 26.4765 16.3134 25.9746 15.6775 25.3413C15.0417 24.708 14.5369 23.9557 14.1919 23.1272C13.8468 22.2988 13.6684 21.4105 13.6667 20.5131Z" fill="url(#paint0_linear_8_648)"/>
<defs>
<linearGradient id="paint0_linear_8_648" x1="20.5" y1="0" x2="20.5" y2="41" gradientUnits="userSpaceOnUse">
<stop stop-color="#FF0069"/>
<stop offset="0.596154" stop-color="#850099"/>
</linearGradient>
</defs>
</svg>
