<svg width="43" height="43" viewBox="0 0 43 43" fill="none" xmlns="http://www.w3.org/2000/svg">
<path d="M31.3507 25.7678C30.8161 25.5008 28.1859 24.2144 27.6963 24.0352C27.2048 23.8579 26.8484 23.7701 26.4901 24.304C26.1355 24.8361 25.1094 26.0347 24.7979 26.3895C24.4865 26.746 24.1733 26.789 23.6386 26.5239C23.1039 26.2551 21.3793 25.6943 19.3361 23.8812C17.7465 22.4693 16.6718 20.726 16.3603 20.1921C16.0489 19.66 16.3279 19.3715 16.5944 19.1064C16.8356 18.8681 17.1308 18.4847 17.3973 18.1747C17.6655 17.863 17.7537 17.6408 17.9337 17.2843C18.1119 16.9295 18.0237 16.6195 17.8887 16.3526C17.7537 16.0856 16.6844 13.4644 16.2397 12.3984C15.8041 11.361 15.363 11.5026 15.0354 11.4846C14.7239 11.4703 14.3675 11.4667 14.0093 11.4667C13.6528 11.4667 13.0731 11.5993 12.5835 12.1332C12.0938 12.6653 10.7113 13.9536 10.7113 16.5748C10.7113 19.1942 12.6285 21.7258 12.8949 22.0823C13.1632 22.4371 16.6682 27.8157 22.0346 30.1215C23.311 30.6698 24.3065 30.9976 25.0842 31.2413C26.3659 31.648 27.5325 31.5907 28.4524 31.4527C29.4803 31.3004 31.6172 30.1645 32.0636 28.9211C32.5101 27.6777 32.5101 26.6117 32.375 26.3895C32.2418 26.1673 31.8872 26.0347 31.3507 25.7678ZM21.59 39.0315H21.5828C18.396 39.0317 15.2678 38.179 12.5259 36.5625L11.876 36.1791L5.14141 37.9385L6.93802 31.4026L6.51497 30.7325C4.73355 27.9093 3.79114 24.6421 3.79665 21.3083C3.79845 11.5438 11.7824 3.59953 21.5972 3.59953C26.3497 3.59953 30.8179 5.44494 34.1771 8.79177C35.8345 10.434 37.1482 12.3871 38.0421 14.5381C38.9361 16.689 39.3925 18.995 39.3851 21.3227C39.3797 31.0872 31.3975 39.0315 21.59 39.0315ZM36.7352 6.2494C34.7517 4.2623 32.3917 2.68674 29.7919 1.614C27.1921 0.54127 24.4043 -0.00730326 21.59 7.3418e-05C9.78956 7.3418e-05 0.185422 9.5586 0.180021 21.3065C0.180021 25.0619 1.16474 28.7276 3.03876 31.958L0 43L11.3503 40.0366C14.4892 41.7385 18.0065 42.6305 21.581 42.6309H21.59C33.3886 42.6309 42.9945 33.0724 42.9999 21.3227C43.0086 18.5228 42.4594 15.749 41.3841 13.1617C40.3088 10.5744 38.7286 8.22501 36.7352 6.2494Z" fill="url(#paint0_linear_8_639)"/>
<defs>
<linearGradient id="paint0_linear_8_639" x1="38.9599" y1="-9.42034e-07" x2="4.04009" y2="43" gradientUnits="userSpaceOnUse">
<stop stop-color="#25D366"/>
<stop offset="1" stop-color="#136D35"/>
</linearGradient>
</defs>
</svg>
