<svg width="42" height="31" viewBox="0 0 42 31" fill="none" xmlns="http://www.w3.org/2000/svg">
<path d="M42 4.23456V28.1816C42 29.738 40.719 30.9983 39.137 30.9983H32.4538V15.0347L21 23.4883L9.54625 15.0347V31H2.863C2.48688 31 2.11444 30.9271 1.76697 30.7854C1.4195 30.6438 1.10381 30.4361 0.837935 30.1744C0.572058 29.9127 0.361207 29.602 0.217431 29.26C0.0736547 28.9181 -0.000229368 28.5516 5.3489e-07 28.1816V4.23456C5.3489e-07 0.751572 4.04075 -1.23698 6.87225 0.853152L9.54625 2.82793L21 11.278L32.4538 2.82449L35.1278 0.853152C37.9575 -1.23526 42 0.751572 42 4.23456Z" fill="url(#paint0_linear_8_654)"/>
<defs>
<linearGradient id="paint0_linear_8_654" x1="21" y1="0" x2="21" y2="31" gradientUnits="userSpaceOnUse">
<stop stop-color="#EA5935"/>
<stop offset="1" stop-color="#970404"/>
</linearGradient>
</defs>
</svg>
